<svg width="208" height="75" viewBox="0 0 208 75" fill="none" xmlns="http://www.w3.org/2000/svg">
<path d="M132.049 15.9024V8.73438C132.049 5.56737 134.616 3 137.783 3H199.428C202.595 3 205.162 5.56737 205.162 8.73438V48.8751C205.162 52.0421 202.595 54.6094 199.428 54.6094H189.393L192.746 70.2603C193.04 71.6282 191.4 72.563 190.372 71.6141L175.057 57.4766H137.783C134.616 57.4766 132.049 54.9093 132.049 51.7422V48.8751" stroke="url(#paint0_linear)" stroke-width="4.30079"/>
<path d="M17.1211 31.666C17.1211 34.5957 16.4531 36.9453 15.1172 38.7148C13.793 40.4727 12 41.3516 9.73828 41.3516C7.81641 41.3516 6.26367 40.6836 5.08008 39.3477V48.3125H0V21.9805H4.71094L4.88672 23.8438C6.11719 22.3672 7.72266 21.6289 9.70312 21.6289C12.0469 21.6289 13.8691 22.4961 15.1699 24.2305C16.4707 25.9648 17.1211 28.3555 17.1211 31.4023V31.666ZM12.041 31.2969C12.041 29.5273 11.7246 28.1621 11.0918 27.2012C10.4707 26.2402 9.5625 25.7598 8.36719 25.7598C6.77344 25.7598 5.67773 26.3691 5.08008 27.5879V35.375C5.70117 36.6289 6.80859 37.2559 8.40234 37.2559C10.8281 37.2559 12.041 35.2695 12.041 31.2969Z" fill="black"/>
<path d="M29.0391 41.3516C26.25 41.3516 23.9766 40.4961 22.2188 38.7852C20.4727 37.0742 19.5996 34.7949 19.5996 31.9473V31.4551C19.5996 29.5449 19.9688 27.8398 20.707 26.3398C21.4453 24.8281 22.4883 23.668 23.8359 22.8594C25.1953 22.0391 26.7422 21.6289 28.4766 21.6289C31.0781 21.6289 33.123 22.4492 34.6113 24.0898C36.1113 25.7305 36.8613 28.0566 36.8613 31.0684V33.1426H24.75C24.9141 34.3848 25.4062 35.3809 26.2266 36.1309C27.0586 36.8809 28.1074 37.2559 29.373 37.2559C31.3301 37.2559 32.8594 36.5469 33.9609 35.1289L36.457 37.9238C35.6953 39.002 34.6641 39.8457 33.3633 40.4551C32.0625 41.0527 30.6211 41.3516 29.0391 41.3516ZM28.459 25.7422C27.4512 25.7422 26.6309 26.082 25.998 26.7617C25.377 27.4414 24.9785 28.4141 24.8027 29.6797H31.8691V29.2754C31.8457 28.1504 31.541 27.2832 30.9551 26.6738C30.3691 26.0527 29.5371 25.7422 28.459 25.7422Z" fill="black"/>
<path d="M50.4492 26.7441C49.7578 26.6504 49.1484 26.6035 48.6211 26.6035C46.6992 26.6035 45.4395 27.2539 44.8418 28.5547V41H39.7617V21.9805H44.5605L44.7012 24.248C45.7207 22.502 47.1328 21.6289 48.9375 21.6289C49.5 21.6289 50.0273 21.7051 50.5195 21.8574L50.4492 26.7441Z" fill="black"/>
<path d="M51.8203 31.3496C51.8203 28.4316 52.5117 26.082 53.8945 24.3008C55.2891 22.5195 57.1641 21.6289 59.5195 21.6289C61.6055 21.6289 63.2285 22.3438 64.3887 23.7734L64.5996 21.9805H69.2051V40.3672C69.2051 42.0312 68.8242 43.4785 68.0625 44.709C67.3125 45.9395 66.252 46.877 64.8809 47.5215C63.5098 48.166 61.9043 48.4883 60.0645 48.4883C58.6699 48.4883 57.3105 48.207 55.9863 47.6445C54.6621 47.0938 53.6602 46.3789 52.9805 45.5L55.2305 42.4062C56.4961 43.8242 58.0312 44.5332 59.8359 44.5332C61.1836 44.5332 62.2324 44.1699 62.9824 43.4434C63.7324 42.7285 64.1074 41.709 64.1074 40.3848V39.3652C62.9355 40.6895 61.3945 41.3516 59.4844 41.3516C57.1992 41.3516 55.3477 40.4609 53.9297 38.6797C52.5234 36.8867 51.8203 34.5137 51.8203 31.5605V31.3496ZM56.9004 31.7188C56.9004 33.4414 57.2461 34.7949 57.9375 35.7793C58.6289 36.752 59.5781 37.2383 60.7852 37.2383C62.332 37.2383 63.4395 36.6582 64.1074 35.498V27.5C63.4277 26.3398 62.332 25.7598 60.8203 25.7598C59.6016 25.7598 58.6406 26.2578 57.9375 27.2539C57.2461 28.25 56.9004 29.7383 56.9004 31.7188Z" fill="black"/>
<path d="M84.5156 39.0664C83.2617 40.5898 81.5273 41.3516 79.3125 41.3516C77.2734 41.3516 75.7148 40.7656 74.6367 39.5938C73.5703 38.4219 73.0254 36.7051 73.002 34.4434V21.9805H78.082V34.2676C78.082 36.248 78.9844 37.2383 80.7891 37.2383C82.5117 37.2383 83.6953 36.6406 84.3398 35.4453V21.9805H89.4375V41H84.6562L84.5156 39.0664Z" fill="black"/>
<path d="M97.9453 21.9805L98.1035 24.1777C99.4629 22.4785 101.285 21.6289 103.57 21.6289C105.586 21.6289 107.086 22.2207 108.07 23.4043C109.055 24.5879 109.559 26.3574 109.582 28.7129V41H104.502V28.8359C104.502 27.7578 104.268 26.9785 103.799 26.498C103.33 26.0059 102.551 25.7598 101.461 25.7598C100.031 25.7598 98.959 26.3691 98.2441 27.5879V41H93.1641V21.9805H97.9453Z" fill="black"/>
<path d="M119.531 17.3047V21.9805H122.783V25.707H119.531V35.1992C119.531 35.9023 119.666 36.4062 119.936 36.7109C120.205 37.0156 120.721 37.168 121.482 37.168C122.045 37.168 122.543 37.127 122.977 37.0449V40.8945C121.98 41.1992 120.955 41.3516 119.9 41.3516C116.338 41.3516 114.521 39.5527 114.451 35.9551V25.707H111.674V21.9805H114.451V17.3047H119.531Z" fill="black"/>
<path d="M136.635 41C136.4 40.543 136.23 39.9746 136.125 39.2949C134.895 40.666 133.295 41.3516 131.326 41.3516C129.463 41.3516 127.916 40.8125 126.686 39.7344C125.467 38.6562 124.857 37.2969 124.857 35.6562C124.857 33.6406 125.602 32.0938 127.09 31.0156C128.59 29.9375 130.752 29.3926 133.576 29.3809H135.914V28.291C135.914 27.4121 135.686 26.709 135.229 26.1816C134.783 25.6543 134.074 25.3906 133.102 25.3906C132.246 25.3906 131.572 25.5957 131.08 26.0059C130.6 26.416 130.359 26.9785 130.359 27.6934H125.279C125.279 26.5918 125.619 25.5723 126.299 24.6348C126.979 23.6973 127.939 22.9648 129.182 22.4375C130.424 21.8984 131.818 21.6289 133.365 21.6289C135.709 21.6289 137.566 22.2207 138.938 23.4043C140.32 24.5762 141.012 26.2285 141.012 28.3613V36.6055C141.023 38.4102 141.275 39.7754 141.768 40.7012V41H136.635ZM132.434 37.4668C133.184 37.4668 133.875 37.3027 134.508 36.9746C135.141 36.6348 135.609 36.1836 135.914 35.6211V32.3516H134.016C131.473 32.3516 130.119 33.2305 129.955 34.9883L129.938 35.2871C129.938 35.9199 130.16 36.4414 130.605 36.8516C131.051 37.2617 131.66 37.4668 132.434 37.4668Z" fill="black"/>
<path d="M165.021 41C164.787 40.543 164.617 39.9746 164.512 39.2949C163.281 40.666 161.682 41.3516 159.713 41.3516C157.85 41.3516 156.303 40.8125 155.072 39.7344C153.854 38.6562 153.244 37.2969 153.244 35.6562C153.244 33.6406 153.988 32.0938 155.477 31.0156C156.977 29.9375 159.139 29.3926 161.963 29.3809H164.301V28.291C164.301 27.4121 164.072 26.709 163.615 26.1816C163.17 25.6543 162.461 25.3906 161.488 25.3906C160.633 25.3906 159.959 25.5957 159.467 26.0059C158.986 26.416 158.746 26.9785 158.746 27.6934H153.666C153.666 26.5918 154.006 25.5723 154.686 24.6348C155.365 23.6973 156.326 22.9648 157.568 22.4375C158.811 21.8984 160.205 21.6289 161.752 21.6289C164.096 21.6289 165.953 22.2207 167.324 23.4043C168.707 24.5762 169.398 26.2285 169.398 28.3613V36.6055C169.41 38.4102 169.662 39.7754 170.154 40.7012V41H165.021ZM160.82 37.4668C161.57 37.4668 162.262 37.3027 162.895 36.9746C163.527 36.6348 163.996 36.1836 164.301 35.6211V32.3516H162.402C159.859 32.3516 158.506 33.2305 158.342 34.9883L158.324 35.2871C158.324 35.9199 158.547 36.4414 158.992 36.8516C159.438 37.2617 160.047 37.4668 160.82 37.4668Z" fill="#E559F9"/>
<path d="M178.785 41H173.705V21.9805H178.785V41ZM177.291 14.2637H182.828L177.959 19.7129H173.828L177.291 14.2637Z" fill="#E559F9"/>
<defs>
<linearGradient id="paint0_linear" x1="132.049" y1="3" x2="192.26" y2="77.547" gradientUnits="userSpaceOnUse">
<stop stop-color="#485BFF"/>
<stop offset="1" stop-color="#FF59F8"/>
</linearGradient>
</defs>
</svg>
